<svg xmlns="http://www.w3.org/2000/svg" width="400" height="300" viewBox="0 0 400 300">
  <!-- Fondo -->
  <rect width="400" height="300" fill="#f5f5f5"/>
  
  <!-- Cielo -->
  <rect width="400" height="100" fill="#87CEEB"/>
  
  <!-- Césped/Jardín -->
  <rect y="180" width="400" height="120" fill="#32CD32"/>
  
  <!-- Casa pequeña -->
  <g>
    <!-- Estructura principal -->
    <rect x="120" y="100" width="160" height="100" fill="#FAEBD7" stroke="#8B4513" stroke-width="2"/>
    
    <!-- Techo -->
    <polygon points="120,100 200,60 280,100" fill="#CD853F" stroke="#8B4513" stroke-width="2"/>
    
    <!-- Puerta -->
    <rect x="190" y="150" width="30" height="50" fill="#8B4513"/>
    <circle cx="200" cy="175" r="2" fill="#FFD700"/> <!-- Picaporte -->
    
    <!-- Ventanas -->
    <rect x="140" y="120" width="30" height="30" fill="#B0E0E6" stroke="#8B4513" stroke-width="2"/>
    <line x1="140" y1="135" x2="170" y2="135" stroke="#8B4513" stroke-width="2"/>
    <line x1="155" y1="120" x2="155" y2="150" stroke="#8B4513" stroke-width="2"/>
    
    <rect x="230" y="120" width="30" height="30" fill="#B0E0E6" stroke="#8B4513" stroke-width="2"/>
    <line x1="230" y1="135" x2="260" y2="135" stroke="#8B4513" stroke-width="2"/>
    <line x1="245" y1="120" x2="245" y2="150" stroke="#8B4513" stroke-width="2"/>
  </g>
  
  <!-- Camino hacia la casa -->
  <rect x="190" y="200" width="30" height="100" fill="#A9A9A9"/>
  
  <!-- Árboles y arbustos -->
  <g>
    <!-- Árbol izquierdo -->
    <rect x="80" y="150" width="10" height="30" fill="#8B4513"/>
    <circle cx="85" cy="130" r="20" fill="#228B22"/>
    
    <!-- Árbol derecho -->
    <rect x="310" y="150" width="10" height="30" fill="#8B4513"/>
    <circle cx="315" cy="130" r="20" fill="#228B22"/>
    
    <!-- Arbustos -->
    <circle cx="120" cy="190" r="10" fill="#006400"/>
    <circle cx="280" cy="190" r="10" fill="#006400"/>
    <circle cx="140" cy="200" r="8" fill="#006400"/>
    <circle cx="260" cy="200" r="8" fill="#006400"/>
  </g>
  
  <!-- Texto "Beccar" -->
  <text x="20" y="280" font-family="Arial, sans-serif" font-size="14" fill="#333">Casa en Beccar</text>
</svg>
