<svg xmlns="http://www.w3.org/2000/svg" width="400" height="300" viewBox="0 0 400 300">
  <!-- Fondo -->
  <rect width="400" height="300" fill="#f0f0f0"/>
  
  <!-- Cielo -->
  <rect width="400" height="150" fill="#ADD8E6"/>
  
  <!-- Agua (río) -->
  <rect y="150" width="400" height="150" fill="#4682B4"/>
  
  <!-- Torre Barlovento -->
  <g>
    <!-- Estructura principal -->
    <rect x="120" y="50" width="160" height="200" fill="#DCDCDC" stroke="#A9A9A9" stroke-width="2"/>
    
    <!-- Ventanas (patrón de cuadrícula) -->
    <g fill="#B0C4DE">
      <!-- Columna 1 -->
      <rect x="140" y="70" width="20" height="15"/>
      <rect x="140" y="95" width="20" height="15"/>
      <rect x="140" y="120" width="20" height="15"/>
      <rect x="140" y="145" width="20" height="15"/>
      <rect x="140" y="170" width="20" height="15"/>
      <rect x="140" y="195" width="20" height="15"/>
      <rect x="140" y="220" width="20" height="15"/>
      
      <!-- Columna 2 -->
      <rect x="170" y="70" width="20" height="15"/>
      <rect x="170" y="95" width="20" height="15"/>
      <rect x="170" y="120" width="20" height="15"/>
      <rect x="170" y="145" width="20" height="15"/>
      <rect x="170" y="170" width="20" height="15"/>
      <rect x="170" y="195" width="20" height="15"/>
      <rect x="170" y="220" width="20" height="15"/>
      
      <!-- Columna 3 -->
      <rect x="200" y="70" width="20" height="15"/>
      <rect x="200" y="95" width="20" height="15"/>
      <rect x="200" y="120" width="20" height="15"/>
      <rect x="200" y="145" width="20" height="15"/>
      <rect x="200" y="170" width="20" height="15"/>
      <rect x="200" y="195" width="20" height="15"/>
      <rect x="200" y="220" width="20" height="15"/>
      
      <!-- Columna 4 -->
      <rect x="230" y="70" width="20" height="15"/>
      <rect x="230" y="95" width="20" height="15"/>
      <rect x="230" y="120" width="20" height="15"/>
      <rect x="230" y="145" width="20" height="15"/>
      <rect x="230" y="170" width="20" height="15"/>
      <rect x="230" y="195" width="20" height="15"/>
      <rect x="230" y="220" width="20" height="15"/>
    </g>
    
    <!-- Detalles arquitectónicos -->
    <rect x="120" y="40" width="160" height="10" fill="#A9A9A9"/>
    <rect x="110" y="50" width="10" height="200" fill="#A9A9A9"/>
    <rect x="280" y="50" width="10" height="200" fill="#A9A9A9"/>
  </g>
  
  <!-- Barcos en el agua -->
  <g>
    <path d="M50,200 L70,200 L60,210 Z" fill="#FFFFFF"/>
    <rect x="55" y="200" width="10" height="15" fill="#8B4513"/>
    
    <path d="M320,180 L350,180 L335,195 Z" fill="#FFFFFF"/>
    <rect x="330" y="180" width="10" height="20" fill="#8B4513"/>
  </g>
  
  <!-- Texto "Olivos" -->
  <text x="20" y="280" font-family="Arial, sans-serif" font-size="14" fill="#FFFFFF">Departamento en Olivos</text>
</svg>
